<svg xmlns="http://www.w3.org/2000/svg" xmlns:xlink="http://www.w3.org/1999/xlink" version="1.1" x="0px" y="0px" viewBox="0 0 100 100" enable-background="new 0 0 100 100" xml:space="preserve"><path d="M31,39.1c-0.9,0-1.7,0.7-1.7,1.7v26.4c0,1,0.8,1.7,1.7,1.7c0.8,0,1.6-0.8,1.6-1.7V55.7h4.5c2.1,0,3.8-1.7,3.8-3.8V43  c0-2-1.7-3.9-3.8-3.9H31z M37.6,51.9c0,0.3-0.3,0.6-0.5,0.6h-4.5v-9.9h4.5c0.3,0,0.5,0.2,0.5,0.5V51.9z M60.8,67.3  c0,1,0.7,1.7,1.7,1.7c0.9,0,1.7-0.8,1.7-1.7V55.7H69c1,0,1.7-0.7,1.7-1.7c0-0.8-0.8-1.6-1.7-1.6h-4.9v-9.9H69c1,0,1.7-0.8,1.7-1.7  c0-1-0.8-1.7-1.7-1.7h-6.5c-1,0-1.7,0.7-1.7,1.7V67.3z M45.8,39.1c-0.9,0-1.6,0.7-1.6,1.7v26.4c0,1,0.7,1.7,1.6,1.7h5.9  c3.2,0,5.8-3,5.8-6.6V45.8c0-3.7-2.6-6.7-5.8-6.7H45.8z M54.2,62.3c0,1.8-1.2,3.3-2.5,3.3h-4.2V42.5h4.2c1.3,0,2.5,1.5,2.5,3.3V62.3  z M84.4,25.6c0,0-0.3-0.3-19.4-19.4C64.4,5.7,63.4,5,62,5H18.6c-2.2,0-4,1.9-4,4.1V91c0,2.2,1.8,4,4,4h62.9c2.3,0,4-1.8,4-4V28.5  C85.5,27.2,85,26.2,84.4,25.6L84.4,25.6z M22.7,86.9V13.2H58v15.3c0,2.2,1.9,4,4,4h15.4v54.3H22.7z"></path></svg>