<?xml version="1.0" encoding="utf-8"?><svg xmlns="http://www.w3.org/2000/svg" xmlns:xlink="http://www.w3.org/1999/xlink"><symbol id="icon-image" fill="currentColor" class="bi bi-image" viewBox="0 0 16 16"> <path d="M6.002 5.5a1.5 1.5 0 1 1-3 0 1.5 1.5 0 0 1 3 0z"/> <path d="M2.002 1a2 2 0 0 0-2 2v10a2 2 0 0 0 2 2h12a2 2 0 0 0 2-2V3a2 2 0 0 0-2-2h-12zm12 1a1 1 0 0 1 1 1v6.5l-3.777-1.947a.5.5 0 0 0-.577.093l-3.71 3.71-2.66-1.772a.5.5 0 0 0-.63.062L1.002 12V3a1 1 0 0 1 1-1h12z"/> </symbol><symbol id="icon-audio" fill="currentColor" class="bi bi-file-play" viewBox="0 0 16 16"> <path d="M6 10.117V5.883a.5.5 0 0 1 .757-.429l3.528 2.117a.5.5 0 0 1 0 .858l-3.528 2.117a.5.5 0 0 1-.757-.43z"/> <path d="M4 0a2 2 0 0 0-2 2v12a2 2 0 0 0 2 2h8a2 2 0 0 0 2-2V2a2 2 0 0 0-2-2H4zm0 1h8a1 1 0 0 1 1 1v12a1 1 0 0 1-1 1H4a1 1 0 0 1-1-1V2a1 1 0 0 1 1-1z"/> </symbol><symbol id="icon-video" fill="currentColor" class="bi bi-film" viewBox="0 0 16 16"> <path d="M0 1a1 1 0 0 1 1-1h14a1 1 0 0 1 1 1v14a1 1 0 0 1-1 1H1a1 1 0 0 1-1-1V1zm4 0v6h8V1H4zm8 8H4v6h8V9zM1 1v2h2V1H1zm2 3H1v2h2V4zM1 7v2h2V7H1zm2 3H1v2h2v-2zm-2 3v2h2v-2H1zM15 1h-2v2h2V1zm-2 3v2h2V4h-2zm2 3h-2v2h2V7zm-2 3v2h2v-2h-2zm2 3h-2v2h2v-2z"/> </symbol><symbol id="icon-pdf" fill="currentColor" class="bi bi-file-richtext" viewBox="0 0 16 16"> <path d="M7 4.25a.75.75 0 1 1-1.5 0 .75.75 0 0 1 1.5 0zm-.861 1.542 1.33.886 1.854-1.855a.25.25 0 0 1 .289-.047l1.888.974V7.5a.5.5 0 0 1-.5.5H5a.5.5 0 0 1-.5-.5V7s1.54-1.274 1.639-1.208zM5 9a.5.5 0 0 0 0 1h6a.5.5 0 0 0 0-1H5zm0 2a.5.5 0 0 0 0 1h3a.5.5 0 0 0 0-1H5z"/> <path d="M2 2a2 2 0 0 1 2-2h8a2 2 0 0 1 2 2v12a2 2 0 0 1-2 2H4a2 2 0 0 1-2-2V2zm10-1H4a1 1 0 0 0-1 1v12a1 1 0 0 0 1 1h8a1 1 0 0 0 1-1V2a1 1 0 0 0-1-1z"/> </symbol><symbol id="icon-default" fill="currentColor" class="bi bi-file-earmark" viewBox="0 0 16 16"> <path d="M14 4.5V14a2 2 0 0 1-2 2H4a2 2 0 0 1-2-2V2a2 2 0 0 1 2-2h5.5L14 4.5zm-3 0A1.5 1.5 0 0 1 9.5 3V1H4a1 1 0 0 0-1 1v12a1 1 0 0 0 1 1h8a1 1 0 0 0 1-1V4.5h-2z"/> </symbol><symbol id="icon-back-to-top" fill="currentColor" class="bi bi-arrow-up-square" viewBox="0 0 16 16"> <path fill-rule="evenodd" d="M15 2a1 1 0 0 0-1-1H2a1 1 0 0 0-1 1v12a1 1 0 0 0 1 1h12a1 1 0 0 0 1-1V2zM0 2a2 2 0 0 1 2-2h12a2 2 0 0 1 2 2v12a2 2 0 0 1-2 2H2a2 2 0 0 1-2-2V2zm8.5 9.5a.5.5 0 0 1-1 0V5.707L5.354 7.854a.5.5 0 1 1-.708-.708l3-3a.5.5 0 0 1 .708 0l3 3a.5.5 0 0 1-.708.708L8.5 5.707V11.5z"/> </symbol></svg>
